# MagicaVoxel @ Ephtracy

# group
o 

# material
mtllib Bed.mtl
usemtl palette

# normals
vn -1 0 0
vn 1 0 0
vn 0 0 1
vn 0 0 -1
vn 0 -1 0
vn 0 1 0

# texcoords
vt 0.0644531 0.5
vt 0.287109 0.5
vt 0.310547 0.5
vt 0.341797 0.5
vt 0.412109 0.5
vt 0.962891 0.5

# verts
v -1.4 0.1 0.7
v -1.4 0.1 -0.9
v -1.4 1.1 0.7
v -1.4 1.1 -0.9
v -1.3 0 0.6
v -1.3 0 0.4
v -1.3 0 -0.6
v -1.3 0 -0.8
v -1.3 0.1 0.6
v -1.3 0.1 0.4
v -1.3 0.1 -0.6
v -1.3 0.1 -0.8
v -1.1 0.5 0.6
v -1.1 0.5 -5.96046e-08
v -1.1 0.5 -0.2
v -1.1 0.5 -0.8
v -1.1 0.6 0.6
v -1.1 0.6 -5.96046e-08
v -1.1 0.6 -0.2
v -1.1 0.6 -0.8
v 1.1 0 0.6
v 1.1 0 0.4
v 1.1 0 -0.6
v 1.1 0 -0.8
v 1.1 0.1 0.6
v 1.1 0.1 0.4
v 1.1 0.1 -0.6
v 1.1 0.1 -0.8
v -1.2 0.5 0.7
v -1.2 0.5 -0.9
v -1.2 1.1 0.7
v -1.2 1.1 -0.9
v -1.1 0 0.6
v -1.1 0 0.4
v -1.1 0 -0.6
v -1.1 0 -0.8
v -1.1 0.1 0.6
v -1.1 0.1 0.4
v -1.1 0.1 -0.6
v -1.1 0.1 -0.8
v -0.8 0.5 0.6
v -0.8 0.5 -5.96046e-08
v -0.8 0.5 -0.2
v -0.8 0.5 -0.8
v -0.8 0.6 0.6
v -0.8 0.6 -5.96046e-08
v -0.8 0.6 -0.2
v -0.8 0.6 -0.8
v 1.3 0 0.6
v 1.3 0 0.4
v 1.3 0 -0.6
v 1.3 0 -0.8
v 1.3 0.1 0.6
v 1.3 0.1 0.4
v 1.3 0.1 -0.6
v 1.3 0.1 -0.8
v 1.4 0.1 0.7
v 1.4 0.1 -0.9
v 1.4 0.2 0.7
v 1.4 0.2 -0.9
v 1.4 0.5 0.7
v 1.4 0.5 -0.9
v -1.4 0.1 0.7
v -1.4 1.1 0.7
v -1.2 0.2 0.7
v -1.2 0.5 0.7
v -1.2 1.1 0.7
v 1.4 0.1 0.7
v 1.4 0.2 0.7
v 1.4 0.5 0.7
v -1.3 0 0.6
v -1.3 0.1 0.6
v -1.1 0 0.6
v -1.1 0.1 0.6
v -1.1 0.5 0.6
v -1.1 0.6 0.6
v -0.8 0.5 0.6
v -0.8 0.6 0.6
v 1.1 0 0.6
v 1.1 0.1 0.6
v 1.3 0 0.6
v 1.3 0.1 0.6
v -1.1 0.5 -0.2
v -1.1 0.6 -0.2
v -0.8 0.5 -0.2
v -0.8 0.6 -0.2
v -1.3 0 -0.6
v -1.3 0.1 -0.6
v -1.1 0 -0.6
v -1.1 0.1 -0.6
v 1.1 0 -0.6
v 1.1 0.1 -0.6
v 1.3 0 -0.6
v 1.3 0.1 -0.6
v -1.3 0 0.4
v -1.3 0.1 0.4
v -1.1 0 0.4
v -1.1 0.1 0.4
v 1.1 0 0.4
v 1.1 0.1 0.4
v 1.3 0 0.4
v 1.3 0.1 0.4
v -1.1 0.5 -5.96046e-08
v -1.1 0.6 -5.96046e-08
v -0.8 0.5 -5.96046e-08
v -0.8 0.6 -5.96046e-08
v -1.3 0 -0.8
v -1.3 0.1 -0.8
v -1.1 0 -0.8
v -1.1 0.1 -0.8
v -1.1 0.5 -0.8
v -1.1 0.6 -0.8
v -0.8 0.5 -0.8
v -0.8 0.6 -0.8
v 1.1 0 -0.8
v 1.1 0.1 -0.8
v 1.3 0 -0.8
v 1.3 0.1 -0.8
v -1.4 0.1 -0.9
v -1.4 1.1 -0.9
v -1.2 0.2 -0.9
v -1.2 0.5 -0.9
v -1.2 1.1 -0.9
v 1.4 0.1 -0.9
v 1.4 0.2 -0.9
v 1.4 0.5 -0.9
v -1.3 0 0.6
v -1.1 0 0.6
v 1.1 0 0.6
v 1.3 0 0.6
v -1.3 0 0.4
v -1.1 0 0.4
v 1.1 0 0.4
v 1.3 0 0.4
v -1.3 0 -0.6
v -1.1 0 -0.6
v 1.1 0 -0.6
v 1.3 0 -0.6
v -1.3 0 -0.8
v -1.1 0 -0.8
v 1.1 0 -0.8
v 1.3 0 -0.8
v -1.4 0.1 0.7
v 1.4 0.1 0.7
v -1.3 0.1 0.6
v -1.1 0.1 0.6
v 1.1 0.1 0.6
v 1.3 0.1 0.6
v -1.3 0.1 0.4
v -1.1 0.1 0.4
v 1.1 0.1 0.4
v 1.3 0.1 0.4
v -1.3 0.1 -0.6
v -1.1 0.1 -0.6
v 1.1 0.1 -0.6
v 1.3 0.1 -0.6
v -1.3 0.1 -0.8
v -1.1 0.1 -0.8
v 1.1 0.1 -0.8
v 1.3 0.1 -0.8
v -1.4 0.1 -0.9
v 1.4 0.1 -0.9
v -1.2 0.5 0.7
v 1.4 0.5 0.7
v -1.1 0.5 0.6
v -0.8 0.5 0.6
v -1.1 0.5 -5.96046e-08
v -0.8 0.5 -5.96046e-08
v -1.1 0.5 -0.2
v -0.8 0.5 -0.2
v -1.1 0.5 -0.8
v -0.8 0.5 -0.8
v -1.2 0.5 -0.9
v 1.4 0.5 -0.9
v -1.1 0.6 0.6
v -0.8 0.6 0.6
v -1.1 0.6 -5.96046e-08
v -0.8 0.6 -5.96046e-08
v -1.1 0.6 -0.2
v -0.8 0.6 -0.2
v -1.1 0.6 -0.8
v -0.8 0.6 -0.8
v -1.4 1.1 0.7
v -1.2 1.1 0.7
v -1.4 1.1 -0.9
v -1.2 1.1 -0.9

# faces
f 3/2/1 2/2/1 1/2/1
f 4/2/1 2/2/1 3/2/1
f 9/3/1 6/3/1 5/3/1
f 10/3/1 6/3/1 9/3/1
f 11/3/1 8/3/1 7/3/1
f 12/3/1 8/3/1 11/3/1
f 17/6/1 14/6/1 13/6/1
f 18/6/1 14/6/1 17/6/1
f 19/6/1 16/6/1 15/6/1
f 20/6/1 16/6/1 19/6/1
f 25/3/1 22/3/1 21/3/1
f 26/3/1 22/3/1 25/3/1
f 27/3/1 24/3/1 23/3/1
f 28/3/1 24/3/1 27/3/1
f 29/2/2 30/2/2 31/2/2
f 31/2/2 30/2/2 32/2/2
f 33/3/2 34/3/2 37/3/2
f 37/3/2 34/3/2 38/3/2
f 35/3/2 36/3/2 39/3/2
f 39/3/2 36/3/2 40/3/2
f 41/6/2 42/6/2 45/6/2
f 45/6/2 42/6/2 46/6/2
f 43/6/2 44/6/2 47/6/2
f 47/6/2 44/6/2 48/6/2
f 49/3/2 50/3/2 53/3/2
f 53/3/2 50/3/2 54/3/2
f 51/3/2 52/3/2 55/3/2
f 55/3/2 52/3/2 56/3/2
f 57/2/2 58/2/2 59/2/2
f 59/2/2 58/2/2 60/2/2
f 59/1/2 60/1/2 61/1/2
f 61/1/2 60/1/2 62/1/2
f 65/2/3 64/2/3 63/2/3
f 66/2/3 64/2/3 65/2/3
f 67/2/3 64/2/3 66/2/3
f 68/2/3 65/2/3 63/2/3
f 69/1/3 66/1/3 65/1/3
f 69/2/3 65/2/3 68/2/3
f 70/1/3 66/1/3 69/1/3
f 73/3/3 72/3/3 71/3/3
f 74/3/3 72/3/3 73/3/3
f 77/6/3 76/6/3 75/6/3
f 78/6/3 76/6/3 77/6/3
f 81/3/3 80/3/3 79/3/3
f 82/3/3 80/3/3 81/3/3
f 85/6/3 84/6/3 83/6/3
f 86/6/3 84/6/3 85/6/3
f 89/3/3 88/3/3 87/3/3
f 90/3/3 88/3/3 89/3/3
f 93/3/3 92/3/3 91/3/3
f 94/3/3 92/3/3 93/3/3
f 95/3/4 96/3/4 97/3/4
f 97/3/4 96/3/4 98/3/4
f 99/3/4 100/3/4 101/3/4
f 101/3/4 100/3/4 102/3/4
f 103/6/4 104/6/4 105/6/4
f 105/6/4 104/6/4 106/6/4
f 107/3/4 108/3/4 109/3/4
f 109/3/4 108/3/4 110/3/4
f 111/6/4 112/6/4 113/6/4
f 113/6/4 112/6/4 114/6/4
f 115/3/4 116/3/4 117/3/4
f 117/3/4 116/3/4 118/3/4
f 119/2/4 120/2/4 121/2/4
f 121/2/4 120/2/4 122/2/4
f 122/2/4 120/2/4 123/2/4
f 119/2/4 121/2/4 124/2/4
f 121/1/4 122/1/4 125/1/4
f 124/2/4 121/2/4 125/2/4
f 125/1/4 122/1/4 126/1/4
f 131/3/5 128/3/5 127/3/5
f 132/3/5 128/3/5 131/3/5
f 133/3/5 130/3/5 129/3/5
f 134/3/5 130/3/5 133/3/5
f 139/3/5 136/3/5 135/3/5
f 140/3/5 136/3/5 139/3/5
f 141/3/5 138/3/5 137/3/5
f 142/3/5 138/3/5 141/3/5
f 145/2/5 144/2/5 143/2/5
f 146/2/5 144/2/5 145/2/5
f 147/2/5 144/2/5 146/2/5
f 148/2/5 144/2/5 147/2/5
f 149/2/5 145/2/5 143/2/5
f 150/2/5 147/2/5 146/2/5
f 151/2/5 147/2/5 150/2/5
f 152/2/5 144/2/5 148/2/5
f 153/2/5 151/2/5 150/2/5
f 153/2/5 152/2/5 151/2/5
f 153/2/5 149/2/5 143/2/5
f 153/2/5 150/2/5 149/2/5
f 154/2/5 152/2/5 153/2/5
f 155/2/5 152/2/5 154/2/5
f 156/2/5 144/2/5 152/2/5
f 156/2/5 152/2/5 155/2/5
f 157/2/5 153/2/5 143/2/5
f 158/2/5 155/2/5 154/2/5
f 159/2/5 155/2/5 158/2/5
f 160/2/5 144/2/5 156/2/5
f 161/2/5 157/2/5 143/2/5
f 161/2/5 160/2/5 159/2/5
f 161/2/5 159/2/5 158/2/5
f 161/2/5 158/2/5 157/2/5
f 162/2/5 144/2/5 160/2/5
f 162/2/5 160/2/5 161/2/5
f 163/1/6 164/1/6 165/1/6
f 165/1/6 164/1/6 166/1/6
f 163/1/6 165/1/6 167/1/6
f 166/1/6 164/1/6 168/1/6
f 163/1/6 167/1/6 169/1/6
f 167/1/6 168/1/6 169/1/6
f 168/1/6 164/1/6 170/1/6
f 169/1/6 168/1/6 170/1/6
f 163/1/6 169/1/6 171/1/6
f 170/1/6 164/1/6 172/1/6
f 163/1/6 171/1/6 173/1/6
f 171/1/6 172/1/6 173/1/6
f 172/1/6 164/1/6 174/1/6
f 173/1/6 172/1/6 174/1/6
f 175/6/6 176/6/6 177/6/6
f 177/6/6 176/6/6 178/6/6
f 179/6/6 180/6/6 181/6/6
f 181/6/6 180/6/6 182/6/6
f 183/2/6 184/2/6 185/2/6
f 185/2/6 184/2/6 186/2/6
